<svg width="1440" height="589" viewBox="0 0 1440 589" fill="none" xmlns="http://www.w3.org/2000/svg">
<g opacity="0.2" clip-path="url(#clip0)">
<path fill-rule="evenodd" clip-rule="evenodd" d="M882.386 305.018L822.252 532.32L815.922 541.67H894.255L1011.36 418.961L1068.33 404.353L1130.83 396.757L1170.4 421.883L1071.49 479.147L1135.58 526.477L1142.7 541.67H1434.67L1212.33 413.702L1137.16 342.999L1084.15 358.776L1019.27 301.512L867.353 0L800.889 66.0288L739.964 149.587L625.235 235.483L551.65 321.963L455.91 355.854L380.743 421.299L314.279 410.781L172.648 541.67H213.001L277.883 484.406L329.313 462.201L467.779 374.553L557.189 345.336L554.815 359.944L417.931 506.61L437.712 430.648L310.323 529.983L278.674 541.67H436.13L561.936 430.648L546.111 455.19L472.526 541.67H613.366L641.059 503.688L686.16 468.629L709.897 461.033L779.526 372.8L809.592 338.909L815.131 381.565L882.386 305.018ZM895.837 195.165L883.968 271.711L880.804 276.386L855.484 300.343L830.956 269.374L828.582 250.676L880.804 99.3353L881.595 156.015L895.837 195.165ZM818.296 161.858L825.417 199.255L744.711 349.427L735.216 259.44L726.513 250.676L623.652 362.866L577.761 405.522L687.742 241.911L735.216 188.737L753.415 186.4L826.208 71.2877L860.231 44.9931L818.296 161.858ZM959.136 368.125L1011.36 354.101L978.125 390.329L939.355 428.311L933.025 409.028L959.136 368.125Z" fill="black" fill-opacity="0.1"/>
<g clip-path="url(#clip1)">
<path fill-rule="evenodd" clip-rule="evenodd" d="M1446.44 33V34.2024L1437.99 40.2143L1439.2 51.0357L1435.58 58.25L1427.13 65.4643L1422.3 73.881L1409.03 76.2857L1402.99 83.5L1396.96 89.5119L1389.72 94.3214L1381.27 93.119L1371.61 90.7143L1358.34 89.5119L1353.51 81.0952L1345.06 76.2857L1337.82 69.0714L1334.2 59.4524L1324.54 54.6429L1311.27 55.8452L1301.61 57.0476L1290.75 60.6548L1278.68 61.8571L1273.85 71.4762H1259.37L1250.92 77.4881V89.5119L1238.85 94.3214L1235.23 103.94L1220.75 106.345L1214.71 115.964L1201.44 117.167L1190.57 109.952L1176.09 111.155L1166.43 105.143L1159.19 99.1309L1149.54 95.5238L1139.88 96.7262L1127.81 94.3214L1118.16 99.1309L1112.12 105.143L1101.26 107.548L1094.02 114.762L1085.57 119.571L1079.54 125.583L1080.74 136.405L1069.88 140.012L1059.02 141.214L1048.16 136.405L1038.5 134L1026.43 132.798L1019.19 125.583H1007.12L999.879 119.571L989.016 118.369L980.568 112.357L969.706 109.952L962.464 101.536L950.395 102.738L940.739 97.9286L933.498 91.9167L922.635 88.3095L911.773 85.9048L904.531 78.6905L892.462 77.4881L885.221 70.2738H873.151L865.91 59.4524L852.634 64.2619L841.771 59.4524L830.909 57.0476L821.253 63.0595H809.184L800.736 67.869H788.666L779.011 71.4762L770.562 77.4881L762.114 83.5L752.459 87.1071L741.596 88.3095H730.734L722.285 94.3214L711.423 91.9167L700.561 95.5238L690.905 90.7143L681.25 87.1071L671.594 85.9048L661.939 82.2976L649.87 83.5L639.007 79.8929L629.352 82.2976L618.49 83.5L613.662 91.9167L604.007 95.5238L593.144 97.9286L585.903 102.738L575.04 103.94H562.971L554.522 95.5238L542.453 96.7262L531.591 94.3214L521.935 93.119L511.073 91.9167L501.418 88.3095L491.762 84.7024L480.9 82.2976L478.486 72.6786L470.038 67.869L459.175 65.4643H449.52H439.864H427.795L422.967 76.2857L407.277 73.881L401.243 84.7024L389.173 87.1071L377.104 89.5119L366.242 91.9167L355.379 85.9048L344.517 83.5L333.655 82.2976L321.585 84.7024L310.723 83.5L301.068 77.4881H288.998L282.964 69.0714L272.101 65.4643L262.446 61.8571L249.17 65.4643L239.514 61.8571L228.652 57.0476L217.79 60.6548L206.927 53.4405L196.065 60.6548L185.203 57.0476L174.34 60.6548L164.685 61.8571H152.616L144.167 66.6667H132.098L121.236 67.869L110.373 69.0714L101.925 76.2857L91.0623 77.4881L82.6138 83.5L71.7515 84.7024L60.8891 87.1071L51.2337 90.7143L40.3714 91.9167H28.3021L19.8536 96.7262H7.78433L-0.664166 102.738L-1.87109 103.94V396.119L5.37047 394.917L16.2328 398.524L27.0952 399.726L37.9575 400.929L48.8199 403.333H59.6822L71.7515 404.536L81.4069 408.143L93.4762 403.333L104.339 404.536L116.408 405.738L127.27 409.345L139.339 410.548L150.202 414.155L162.271 411.75H174.34L186.41 412.952L197.272 415.357H209.341L218.997 421.369L231.066 420.167L240.721 427.381L252.791 421.369L262.446 426.179L273.308 424.976L284.171 432.19H295.033L305.895 426.179L316.758 430.988L327.62 427.381L338.482 432.19L349.345 434.595L360.207 432.19L371.069 433.393L380.725 438.202L392.794 435.798L404.863 437L415.726 439.405L427.795 438.202L439.864 437L450.727 441.809L462.796 438.202L473.658 440.607L485.728 444.214L496.59 441.809L507.452 443.012L518.315 447.821L529.177 446.619L540.039 445.417L550.902 449.024L561.764 450.226L572.626 451.429L583.489 450.226L594.351 451.429L605.213 452.631L616.076 451.429L628.145 446.619H639.007H649.87L660.732 447.821H671.594H683.664L694.526 452.631L705.388 451.429L716.251 453.833L728.32 446.619L739.182 449.024L750.045 452.631L760.907 451.429L771.769 449.024L783.839 450.226L794.701 446.619L805.563 451.429L816.426 450.226H827.288L839.357 449.024L850.22 445.417L861.082 450.226L871.944 452.631L882.807 445.417L894.876 447.821L905.738 451.429H916.601L927.463 444.214L938.325 445.417L950.395 446.619L961.257 449.024L972.119 444.214L982.982 447.821H993.844L1004.71 446.619L1015.57 445.417L1026.43 444.214L1037.29 449.024L1048.16 447.821L1059.02 445.417L1071.09 446.619L1080.74 439.405L1092.81 445.417L1103.67 441.809L1114.54 444.214L1125.4 441.809L1136.26 437L1147.12 439.405H1157.99L1168.85 443.012L1179.71 438.202H1190.57L1202.64 440.607L1213.5 441.809L1224.37 438.202L1234.02 433.393H1246.09H1256.95L1267.82 432.19H1278.68L1289.54 438.202L1300.4 434.595L1312.47 437L1323.34 433.393H1334.2L1345.06 434.595L1357.13 435.798L1367.99 430.988H1378.85L1389.72 433.393L1400.58 428.583L1412.65 434.595L1423.51 429.786L1434.37 426.179L1446.44 429.786V33Z" fill="url(#paint0_linear)"/>
<path fill-rule="evenodd" clip-rule="evenodd" d="M1446.44 155.641L1442.82 154.439L1431.96 155.641H1422.3L1413.85 153.236L1404.2 149.629H1394.54L1384.89 150.831L1376.44 154.439L1365.58 153.236L1355.92 154.439L1348.68 158.046L1336.61 155.641L1328.16 158.046L1318.51 160.45L1308.85 156.843L1299.2 160.45H1289.54L1281.09 154.439L1271.44 158.046L1261.78 154.439L1252.13 156.843L1243.68 159.248L1236.44 161.653H1224.37L1218.33 166.462L1208.68 167.665L1201.44 172.474L1192.99 176.081H1182.12L1171.26 173.677L1161.61 174.879H1150.74L1141.09 172.474L1135.05 166.462L1126.61 164.058L1116.95 162.855L1108.5 159.248L1097.64 158.046L1089.19 154.439L1080.74 150.831L1069.88 152.034L1059.02 149.629L1046.95 150.831L1040.91 155.641L1033.67 159.248L1024.02 162.855L1014.36 165.26L1007.12 168.867L998.672 172.474H987.809L976.947 173.677L969.706 168.867L962.464 165.26L951.602 164.058L944.36 159.248H933.498L926.256 153.236L915.394 155.641L908.152 159.248L897.29 160.45V166.462L887.634 170.07L882.807 173.677L880.393 178.486L879.186 184.498L867.117 186.903L868.324 192.915L863.496 197.724L852.634 198.927L845.392 202.534L835.737 203.736L826.081 207.343L817.633 203.736H806.77L801.943 197.724L793.494 196.522L783.839 194.117H772.976L768.149 189.308L757.286 188.105L750.045 184.498L744.01 180.891L735.562 177.284H724.699L716.251 174.879L710.216 170.07L701.768 168.867L693.319 165.26L682.457 166.462L675.215 161.653H664.353L655.904 158.046L647.456 156.843L637.8 154.439H628.145L617.283 156.843L607.627 154.439L597.972 156.843L588.316 153.236L578.661 154.439L569.006 152.034L559.35 153.236L548.488 155.641L540.039 150.831L529.177 153.236L519.522 149.629L509.866 153.236L500.211 154.439L490.555 149.629L480.9 153.236L471.245 149.629L461.589 152.034L450.727 153.236L442.278 149.629H431.416L421.76 153.236H412.105L402.45 152.034H391.587L384.346 148.427L377.104 143.617L365.035 146.022L357.793 143.617L349.345 140.01L339.689 141.212L330.034 138.808L319.172 141.212L309.516 142.415L301.068 144.82L290.205 146.022H280.55H269.688L261.239 150.831L250.377 147.224L240.721 150.831L231.066 149.629L221.41 147.224L210.548 150.831L203.307 144.82H193.651H182.789L174.34 141.212H164.685L155.029 144.82L145.374 142.415H134.512H124.856L116.408 147.224L105.545 146.022L95.89 148.427H86.2346L75.3723 147.224L65.7168 149.629L56.0614 150.831L45.1991 148.427L35.5437 149.629L25.8882 147.224L16.2328 144.82L5.37047 147.224H-1.87109V475.474L7.78433 476.677L19.8536 473.07L28.3021 476.677L37.9575 479.081L48.8199 475.474L58.4753 479.081L68.1307 476.677L77.7861 480.284L87.4415 481.486H97.097L106.752 482.689L117.615 481.486L127.27 483.891L136.926 482.689L146.581 485.093L157.443 481.486L167.099 482.689H176.754L186.41 483.891H197.272L206.927 481.486L216.583 485.093L226.238 486.296L235.894 487.498H246.756L256.411 488.701L266.067 483.891L275.722 486.296L286.585 487.498L296.24 483.891L305.895 488.701H315.551L326.413 485.093H336.069L345.724 487.498L355.379 489.903L366.242 486.296L375.897 488.701L385.553 487.498H395.208L404.863 488.701L415.726 486.296L425.381 487.498L435.037 492.308L444.692 491.105L454.347 489.903H464.003L474.865 487.498L484.521 489.903L494.176 493.51L503.832 491.105H513.487L523.142 492.308H534.005L543.66 488.701L553.316 491.105L562.971 494.712L572.626 492.308L583.489 494.712L593.144 492.308L602.8 493.51L612.455 494.712L622.11 492.308L632.973 494.712L642.628 491.105L652.284 494.712L661.939 493.51L671.594 492.308L682.457 491.105L692.112 494.712L701.768 491.105L711.423 493.51H721.078L731.941 495.915L741.596 492.308H751.252L760.907 494.712L770.562 495.915H781.425L791.08 494.712L800.736 492.308L810.391 494.712L820.047 491.105L830.909 495.915L840.564 494.712L850.22 492.308L859.875 494.712L869.531 492.308L880.393 494.712L890.048 492.308H899.704L909.359 493.51L919.015 494.712L928.67 491.105L939.532 493.51L949.188 494.712H958.843L968.499 493.51L978.154 495.915H989.016L998.672 493.51L1008.33 492.308L1017.98 491.105L1027.64 492.308L1038.5 491.105L1048.16 493.51L1057.81 492.308L1067.47 491.105L1077.12 494.712H1087.98L1097.64 491.105L1107.3 495.915L1116.95 493.51L1126.61 491.105L1137.47 493.51H1147.12L1156.78 492.308L1166.43 489.903L1176.09 491.105L1186.95 494.712L1196.61 492.308H1206.26L1215.92 491.105L1225.57 494.712L1236.44 492.308L1246.09 494.712L1255.75 489.903L1265.4 491.105H1275.06H1284.71L1295.58 493.51L1305.23 489.903L1314.89 493.51L1324.54 492.308L1334.2 491.105L1345.06 493.51L1354.72 494.712L1364.37 493.51H1374.03L1383.68 491.105L1394.54 492.308L1404.2 493.51L1413.85 491.105L1423.51 494.712L1433.17 493.51L1444.03 494.712L1446.44 493.51V155.641Z" fill="url(#paint1_linear)"/>
<path fill-rule="evenodd" clip-rule="evenodd" d="M1446.44 112.656L1445.23 111.454L1442.82 103.042L1439.2 95.8323L1437.99 87.4204L1431.96 80.2102L1427.13 73L1421.1 74.2017L1415.06 81.4119L1409.03 89.8238L1405.41 95.8323L1398.16 100.639L1394.54 107.849L1389.72 115.059L1383.68 122.27L1377.65 129.48L1371.61 136.69L1365.58 143.9L1360.75 152.312L1357.13 159.522L1348.68 165.531L1345.06 172.741L1340.23 179.951L1336.61 188.363L1329.37 193.17L1320.92 199.178L1310.06 202.783L1305.23 211.195L1299.2 217.204L1296.78 225.616L1287.13 224.414L1281.09 218.406L1273.85 216.002L1261.78 217.204L1254.54 211.195L1248.51 203.985L1237.64 202.783L1232.82 206.389L1227.99 213.599H1218.33L1208.68 218.406H1196.61L1185.75 214.8L1178.5 208.792L1171.26 201.582L1161.61 197.977L1150.74 196.775L1143.5 201.582L1135.05 203.985L1131.43 212.397L1125.4 217.204L1119.36 223.212L1113.33 228.019L1104.88 231.624L1096.43 224.414L1087.98 218.406L1085.57 208.792L1078.33 201.582L1068.67 202.783L1063.85 197.977L1055.4 193.17L1049.36 187.161L1043.33 182.355L1036.09 184.758L1027.64 187.161L1022.81 195.573L1020.4 203.985L1015.57 211.195L1009.53 218.406L1002.29 224.414L997.465 231.624V241.238L993.844 248.448L990.223 256.86L984.189 264.07V272.482L979.361 280.894L980.568 289.306L975.74 297.718L974.533 307.331L970.912 316.945L961.257 324.155L952.809 318.147L949.188 309.735L940.739 304.928L935.911 297.718L927.463 294.113L919.015 290.507L911.773 284.499L902.118 280.894H891.255H877.979L867.117 276.087L859.875 267.675H849.013H839.357H829.702L820.047 271.28L810.391 273.684L801.943 268.877L792.287 267.675H783.839L772.976 272.482L762.114 273.684L754.872 267.675L748.838 261.667L740.389 258.062L731.941 259.263L722.285 254.456L715.044 246.045L706.595 240.036L699.354 232.826L694.526 225.616L687.284 219.607L677.629 214.8L669.181 219.607L660.732 220.809L652.284 216.002L641.421 212.397L636.594 202.783L630.559 197.977L625.731 191.968L620.903 184.758L617.283 177.548H606.42L597.972 184.758L589.523 191.968L579.868 194.372L572.626 200.38L565.385 208.792L560.557 218.406L552.109 214.8H543.66H535.212L524.349 212.397L514.694 207.59L506.245 203.985L495.383 207.59L485.728 202.783L476.072 193.17L461.589 196.775L454.348 190.766L447.106 185.96L438.657 181.153L435.037 172.741L427.795 165.531L419.347 160.724L414.519 151.11L407.277 145.102L395.208 142.699L391.587 151.11L384.346 154.715L375.897 158.321L367.449 161.926L360.207 169.136L350.552 171.539L343.31 179.951L334.862 182.355L327.62 188.363L319.172 191.968L313.137 197.977L308.309 206.389L297.447 208.792L290.205 213.599L284.171 220.809L275.722 225.616L263.653 228.019L255.204 235.229L247.963 240.036H241.928L234.687 234.028L226.238 231.624L218.997 225.616L210.548 223.212L203.307 219.607H192.444L186.41 212.397L177.961 207.59L167.099 205.187L159.857 197.977L147.788 196.775L139.339 193.17L127.27 188.363L123.649 181.153L113.994 182.355L104.339 181.153L95.89 184.758L85.0277 187.161L76.5792 193.17L65.7168 189.565L57.2684 194.372L50.0268 188.363L40.3714 189.565L30.716 184.758L21.0605 179.951L11.4051 184.758L4.16354 189.565L-1.87109 193.17V568.1L5.37047 572.907L15.0259 575.31H24.6813L33.1298 581.318L42.7852 583.722L53.6476 584.924L62.0961 589.73L72.9584 590.932L81.4069 595.739L91.0623 599.344L99.5108 600.546L107.959 605.352L117.615 608.958L127.27 610.159L135.719 613.764L145.374 614.966L155.029 616.168L164.685 619.773H175.547L183.996 624.58L193.651 626.983L203.307 630.588H212.962L222.617 632.992L232.273 637.798L243.135 635.395H253.998L263.653 637.798H274.515L284.171 636.597L293.826 635.395L303.482 637.798L314.344 634.193L323.999 637.798L333.655 634.193L343.31 632.992H352.966L362.621 634.193H372.276L381.932 632.992H391.587L402.45 634.193L412.105 632.992L421.76 636.597L431.416 635.395L441.071 636.597H450.727L460.382 634.193L470.038 635.395L480.9 632.992L490.555 635.395L500.211 634.193L509.866 636.597L519.522 635.395L529.177 636.597L538.832 635.395L548.488 637.798L559.35 636.597L569.006 637.798L578.661 636.597L588.316 632.992L597.972 637.798L607.627 634.193L617.283 636.597L626.938 634.193H637.8H647.456L657.111 636.597H666.767H676.422L686.078 637.798L695.733 635.395L705.388 634.193L715.044 632.992L725.906 634.193L735.562 637.798L745.217 636.597L754.872 637.798L764.528 635.395H774.183L783.839 634.193L793.494 639L804.357 635.395L814.012 632.992L823.667 634.193H833.323H842.978L852.634 636.597L862.289 632.992L871.944 636.597L882.807 632.992H892.462H902.118L911.773 635.395L921.428 634.193H931.084H940.739L950.395 631.79L960.05 632.992L969.706 631.79H979.361L989.016 628.185H998.672L1008.33 625.781L1019.19 626.983L1027.64 623.378L1037.29 622.176L1046.95 619.773L1057.81 623.378L1067.47 622.176L1075.92 617.369L1086.78 618.571H1096.43H1106.09L1115.74 617.369L1124.19 614.966H1133.85L1143.5 617.369L1153.16 614.966L1162.81 611.361H1172.47L1182.12 616.168L1191.78 613.764L1201.44 614.966L1211.09 613.764L1220.75 617.369H1230.4L1240.06 616.168L1249.71 617.369L1259.37 613.764L1269.02 616.168H1278.68H1289.54L1299.2 617.369H1308.85L1319.71 613.764L1329.37 618.571L1339.03 616.168L1349.89 614.966L1359.54 617.369L1369.2 618.571L1380.06 616.168H1389.72L1399.37 620.975L1410.23 617.369L1419.89 618.571H1429.54L1440.41 617.369L1446.44 619.773V112.656Z" fill="url(#paint2_linear)"/>
</g>
</g>
<defs>
<linearGradient id="paint0_linear" x1="722.285" y1="327.779" x2="722.285" y2="67.245" gradientUnits="userSpaceOnUse">
<stop offset="0.0848214" stop-color="#EDEDED"/>
<stop offset="0.4736" stop-color="#ECECEC"/>
<stop offset="0.6768" stop-color="#E9E9E9"/>
<stop offset="0.8371" stop-color="#DCDCDC"/>
<stop offset="0.953125" stop-color="#D1D1D1"/>
<stop offset="0.9742" stop-color="#D3D3D3"/>
<stop offset="1" stop-color="#D2D2D2"/>
</linearGradient>
<linearGradient id="paint1_linear" x1="722.285" y1="496.326" x2="722.285" y2="138.224" gradientUnits="userSpaceOnUse">
<stop offset="0.3973" stop-color="#C2C2C2"/>
<stop offset="0.6503" stop-color="#BEBEBE"/>
<stop offset="0.7826" stop-color="#BABABA"/>
<stop offset="0.8869" stop-color="#B2B2B2"/>
<stop offset="0.947917" stop-color="#A1A1A1"/>
<stop offset="0.9761" stop-color="#A8A8A8"/>
</linearGradient>
<linearGradient id="paint2_linear" x1="722.285" y1="638.453" x2="722.285" y2="73.0685" gradientUnits="userSpaceOnUse">
<stop stop-color="#E6E6E6"/>
<stop offset="0.364583" stop-color="#CCCCCB"/>
<stop offset="0.6186" stop-color="#B8B8B8"/>
<stop offset="0.7862" stop-color="#A6A6A6"/>
<stop offset="0.9294" stop-color="#8F8F8F"/>
<stop offset="1" stop-color="#5E5E5E"/>
</linearGradient>
<clipPath id="clip0">
<rect width="1679" height="589" fill="white" transform="translate(-45)"/>
</clipPath>
<clipPath id="clip1">
<rect width="1448.31" height="606" fill="white" transform="translate(-1.87109 33)"/>
</clipPath>
</defs>
</svg>
