<svg width="20" height="18" viewBox="0 0 20 18" fill="none" xmlns="http://www.w3.org/2000/svg">
<path d="M19.0962 15.5C19.0962 16.8811 17.9619 18 16.5619 18H3.38386C1.98448 18 0.849609 16.8811 0.849609 15.5V2.5C0.849609 1.11895 1.98448 0 3.38386 0H16.5619C17.9619 0 19.0962 1.11895 19.0962 2.5V15.5Z" fill="#3F51B5"/>
<path d="M15.2277 9.5H13.5206V16H10.9864V9.5H9.46582V7.5H10.9864V6.29492C10.9874 4.54102 11.7259 3.5 13.8208 3.5H15.548V5.5H14.3888C13.5733 5.5 13.5206 5.8 13.5206 6.36152V7.5H15.548L15.2277 9.5Z" fill="white"/>
</svg>
