<svg width="24" height="24" viewBox="0 0 24 24" fill="none" xmlns="http://www.w3.org/2000/svg">
<path d="M11.25 1.5C5.87109 1.5 1.5 5.87109 1.5 11.25C1.5 16.6289 5.87109 21 11.25 21C13.0781 21 14.7949 20.4961 16.2598 19.6172L15.4863 18.3281C14.25 19.0723 12.8027 19.5 11.25 19.5C6.68555 19.5 3 15.8145 3 11.25C3 6.68555 6.68555 3 11.25 3C15.8145 3 19.5 6.68555 19.5 11.25V12.9023C19.5 14.0625 18.5625 15 17.4082 15H17.0977C15.9434 15 15 14.0625 15 12.9023V9.59766C15 7.62305 13.377 6 11.4023 6H11.0977C9.12305 6 7.5 7.62305 7.5 9.59766V12.9023C7.5 14.877 9.12305 16.5 11.0977 16.5H11.4023C12.5625 16.5 13.5938 15.9316 14.25 15.0703C14.9121 15.9316 15.9375 16.5 17.0977 16.5H17.4082C19.377 16.5 21 14.8828 21 12.9023V11.25C21 5.87109 16.6289 1.5 11.25 1.5ZM11.0977 7.5H11.4023C12.5566 7.5 13.5 8.4375 13.5 9.59766V12.9023C13.5 14.0625 12.5566 15 11.4023 15H11.0977C9.9375 15 9 14.0625 9 12.9023V9.59766C9 8.4375 9.9375 7.5 11.0977 7.5Z" fill="white" fill-opacity="0.7"/>
</svg>
