<svg width="24" height="25" viewBox="0 0 24 25" fill="none" xmlns="http://www.w3.org/2000/svg">
<path d="M5.05669 2.06445L2.69536 4.42578C1.40044 5.7207 1.11919 7.73633 2.04497 9.31836C3.07622 11.0879 3.91997 12.3945 7.45317 15.9219C10.9805 19.4551 11.9415 19.9355 13.6817 20.9551C15.2696 21.8809 17.2793 21.5996 18.5684 20.3047L20.9356 17.9434L16.3653 13.3789L14.5079 15.2363C14.2852 15.1367 13.9512 14.9609 13.5645 14.7148C12.7676 14.2051 11.7481 13.4258 10.8516 12.5234C9.94926 11.627 9.07036 10.5078 8.46098 9.60547C8.16215 9.16016 7.92192 8.75586 7.79301 8.49219C7.78715 8.48047 7.78715 8.48047 7.78129 8.46875L9.62114 6.62891L5.05669 2.06445ZM5.05669 4.18555L7.50004 6.62891L6.42778 7.70703C6.20512 7.92969 6.18169 8.17578 6.18754 8.31641C6.18754 8.45117 6.21098 8.54492 6.23442 8.63281C6.28715 8.81445 6.35747 8.97266 6.44536 9.16016C6.627 9.52344 6.89067 9.95703 7.21879 10.4492C7.87504 11.4219 8.80083 12.5996 9.7852 13.5898C10.7754 14.5742 11.8653 15.4062 12.7618 15.9746C13.2071 16.2617 13.5997 16.4785 13.9336 16.625C14.1036 16.7012 14.2559 16.7598 14.4375 16.7949C14.5254 16.8125 14.625 16.8242 14.7598 16.8125C14.8946 16.8066 15.1055 16.7598 15.293 16.5723L16.3653 15.5L18.8145 17.9434L17.5079 19.25C16.6934 20.0645 15.4336 20.2402 14.4375 19.6602C12.668 18.623 11.9942 18.3477 8.50786 14.8672C5.02739 11.3809 4.35942 10.3086 3.33989 8.5625C2.75981 7.56641 2.93559 6.30664 3.75004 5.49219L5.05669 4.18555Z" fill="black" fill-opacity="0.3"/>
</svg>
