<svg width="32" height="47" viewBox="0 0 32 47" fill="none" xmlns="http://www.w3.org/2000/svg">
<path d="M15.8094 0.952148C13.715 0.952148 11.9998 2.66702 11.9998 4.7614V5.7139H3.42841C1.86241 5.7139 0.571289 7.00502 0.571289 8.57102V43.809C0.571289 45.3754 1.86241 46.6661 3.42841 46.6661H28.1904C29.7568 46.6661 31.0475 45.3754 31.0475 43.809V8.57102C31.0475 7.00502 29.7568 5.7139 28.1904 5.7139H19.619V4.7614C19.619 2.66702 17.9038 0.952148 15.8094 0.952148ZM15.8094 2.85677C16.8733 2.85677 17.714 3.69752 17.714 4.7614V6.50627C17.6957 6.61052 17.6957 6.71477 17.714 6.81527V8.57102H13.9048V6.82615C13.9232 6.72227 13.9232 6.61802 13.9048 6.51752V4.7614C13.9048 3.69752 14.7455 2.85677 15.8094 2.85677ZM15.8094 3.80927C15.2848 3.80927 14.8569 4.23715 14.8569 4.7614C14.8569 5.28602 15.2848 5.7139 15.8094 5.7139C16.334 5.7139 16.7619 5.28602 16.7619 4.7614C16.7619 4.23715 16.334 3.80927 15.8094 3.80927ZM3.42841 7.61852H11.9998V9.52352C11.9998 10.0481 12.4277 10.476 12.9523 10.476H18.6665C19.1912 10.476 19.619 10.0481 19.619 9.52352V7.61852H28.1904C28.7297 7.61852 29.1429 8.03177 29.1429 8.57102V43.809C29.1429 44.3486 28.7297 44.7615 28.1904 44.7615H3.42841C2.88916 44.7615 2.47629 44.3486 2.47629 43.809V8.57102C2.47629 8.03177 2.88916 7.61852 3.42841 7.61852ZM23.7077 20.2785L12.9523 31.0339L7.91154 25.9928L6.56454 27.3398L12.9523 33.7271L25.0543 21.6255L23.7077 20.2785Z" fill="black"/>
</svg>
