<svg width="48" height="48" viewBox="0 0 48 48" fill="none" xmlns="http://www.w3.org/2000/svg">
<path d="M21.1455 1.9043C20.6805 1.9043 20.2823 2.24292 20.208 2.70417L19.449 7.3658C17.9648 7.75655 16.5698 8.34042 15.2787 9.09192L11.4244 6.33905C11.0449 6.06755 10.524 6.10842 10.1967 6.43955L6.49505 10.1449C6.16767 10.4685 6.12305 10.9819 6.38367 11.3614L9.10692 15.249C8.34792 16.5473 7.76367 17.946 7.3658 19.434L2.70042 20.2118C2.24292 20.2898 1.9043 20.6843 1.9043 21.1493V26.3873C1.9043 26.8523 2.23542 27.2468 2.6933 27.3248L7.3583 28.1543C7.7528 29.6427 8.33667 31.0414 9.09192 32.3397L6.3353 36.1902C6.0638 36.5697 6.10842 37.0905 6.4358 37.4179L10.1412 41.1195C10.4685 41.4469 10.9819 41.4915 11.3577 41.2309L15.249 38.5114C16.5435 39.2667 17.9423 39.8547 19.4303 40.2525L20.208 44.9217C20.286 45.3792 20.6843 45.714 21.1493 45.714H26.3873C26.8485 45.714 27.243 45.3829 27.3248 44.9292L28.1543 40.2638C29.6535 39.8659 31.071 39.2704 32.3805 38.5077L36.2607 41.2272C36.6364 41.4915 37.1535 41.4469 37.4809 41.1195L41.1825 37.4179C41.5137 37.0868 41.5545 36.5659 41.2793 36.1902L38.5227 32.3547C39.2817 31.0527 39.873 29.6427 40.2675 28.1434L44.9254 27.3248C45.3829 27.2468 45.714 26.8523 45.714 26.3873V21.1493C45.714 20.6843 45.3754 20.286 44.9142 20.2118L40.2563 19.449C39.8584 17.9535 39.2667 16.5473 38.5077 15.2415L41.2272 11.3685C41.4915 10.9894 41.4469 10.4723 41.1195 10.1483L37.4179 6.4433C37.0868 6.11217 36.5659 6.07092 36.1902 6.3428L32.3509 9.09942C31.0489 8.33667 29.6389 7.74905 28.1397 7.35455L27.3248 2.6933C27.2468 2.23542 26.8485 1.9043 26.3835 1.9043H21.1455ZM21.9604 3.8093H25.5837L26.3652 8.24742C26.4319 8.62692 26.7184 8.92842 27.0979 9.01392C28.839 9.40055 30.4609 10.0853 31.923 11.0153C32.2504 11.2272 32.6745 11.2125 32.9907 10.9857L36.6439 8.36292L39.2108 10.926L36.618 14.6202C36.3949 14.9363 36.3874 15.3567 36.5918 15.6803C37.5255 17.1387 38.214 18.7647 38.601 20.5058C38.6865 20.8849 38.9914 21.1752 39.3747 21.2348L43.809 21.9604V25.5912L39.3709 26.3685C38.9914 26.4357 38.6903 26.7222 38.6044 27.0979C38.2215 28.839 37.533 30.4647 36.6068 31.923C36.3949 32.2542 36.4058 32.6745 36.6364 32.9907L39.2629 36.6439L36.696 39.2108L33.0019 36.618C32.6858 36.3949 32.2654 36.3874 31.9418 36.5918C30.4797 37.5255 28.8537 38.214 27.1092 38.601C26.7334 38.6865 26.4469 38.9877 26.3798 39.3634L25.5912 43.809H21.9567L21.216 39.3672C21.153 38.9839 20.8628 38.679 20.4833 38.5973C18.7534 38.2103 17.1387 37.5255 15.684 36.5955C15.3604 36.3912 14.94 36.3983 14.6277 36.6218L10.9223 39.2108L8.35542 36.6402L10.9782 32.976C11.2013 32.6595 11.2163 32.2392 11.0078 31.9118C10.0853 30.4534 9.40055 28.8428 9.01767 27.1129C8.9318 26.7372 8.63067 26.4469 8.25117 26.3798L3.8093 25.5912V21.9604L8.25117 21.2198C8.63067 21.1568 8.93555 20.8665 9.02142 20.487C9.40805 18.7572 10.0965 17.1387 11.0228 15.684C11.2272 15.3604 11.2163 14.9438 10.9965 14.6277L8.40755 10.9223L10.9744 8.35542L14.6427 10.9782C14.9588 11.2013 15.3792 11.2163 15.7065 11.0078C17.1612 10.089 18.7755 9.4043 20.502 9.01767C20.8815 8.93555 21.1714 8.62692 21.2348 8.24367L21.9604 3.8093ZM23.8092 12.3807C17.5073 12.3807 12.3807 17.5107 12.3807 23.8092C12.3807 30.1077 17.5073 35.2377 23.8092 35.2377C30.1114 35.2377 35.2377 30.1077 35.2377 23.8092C35.2377 17.5107 30.1114 12.3807 23.8092 12.3807ZM23.8092 14.2853C29.0809 14.2853 33.333 18.5378 33.333 23.8092C33.333 29.0772 29.0809 33.333 23.8092 33.333C18.5378 33.333 14.2853 29.0772 14.2853 23.8092C14.2853 18.5378 18.5378 14.2853 23.8092 14.2853ZM23.8092 18.0949C20.6655 18.0949 18.0949 20.6655 18.0949 23.8092C18.0949 26.9528 20.6655 29.5234 23.8092 29.5234C26.9528 29.5234 29.5234 26.9528 29.5234 23.8092C29.5234 20.6655 26.9528 18.0949 23.8092 18.0949ZM23.8092 19.9995C25.926 19.9995 27.6188 21.6923 27.6188 23.8092C27.6188 25.926 25.926 27.6188 23.8092 27.6188C21.6923 27.6188 19.9995 25.926 19.9995 23.8092C19.9995 21.6923 21.6923 19.9995 23.8092 19.9995Z" fill="black"/>
</svg>
