<svg width="24" height="25" viewBox="0 0 24 25" fill="none" xmlns="http://www.w3.org/2000/svg">
<path d="M3 3.5C2.17969 3.5 1.5 4.17969 1.5 5V17C1.5 17.8203 2.17969 18.5 3 18.5V19.25C3 21.3125 4.6875 23 6.75 23C8.8125 23 10.5 21.3125 10.5 19.25V18.5H18.75C19.9863 18.5 21 17.4863 21 16.25V7.25C21 6.01367 19.9863 5 18.75 5H16.5V3.5H9V5H6.75C6.48633 5 6.23438 5.05859 6 5.14062V5C6 4.17969 5.32031 3.5 4.5 3.5H3ZM3 5H4.5V17H3V5ZM10.5 5H15V8H10.5V5ZM6.75 6.5H9V9.5H16.5V6.5H18.75C19.1719 6.5 19.5 6.82812 19.5 7.25V16.25C19.5 16.6719 19.1719 17 18.75 17H6.75C6.32812 17 6 16.6719 6 16.25V7.25C6 6.82812 6.32812 6.5 6.75 6.5ZM9 11V12.5H10.5V11H9ZM12 11V12.5H13.5V11H12ZM15 11V12.5H16.5V11H15ZM9 14V15.5H10.5V14H9ZM12 14V15.5H13.5V14H12ZM15 14V15.5H16.5V14H15ZM5.48438 18.1016C5.84766 18.3535 6.28125 18.5 6.75 18.5H9V19.25C9 20.5039 8.00391 21.5 6.75 21.5C5.49609 21.5 4.5 20.5039 4.5 19.25V18.5C4.88086 18.5 5.2207 18.3418 5.48438 18.1016Z" fill="black" fill-opacity="0.3"/>
</svg>
