<svg width="24" height="24" viewBox="0 0 24 24" fill="none" xmlns="http://www.w3.org/2000/svg">
<path d="M12.0005 3C9.52201 3 7.50053 5.02148 7.50053 7.5C7.50053 8.24414 7.78178 9.00586 8.15092 9.84375C8.46146 10.5527 8.85404 11.291 9.25834 12H5.25053C4.94584 12 4.66459 12.1875 4.55326 12.4688L1.55326 19.9688C1.45951 20.2031 1.48881 20.4668 1.62943 20.6719C1.77006 20.877 2.00443 21 2.25053 21H21.7505C21.9966 21 22.231 20.877 22.3716 20.6719C22.5122 20.4668 22.5415 20.2031 22.4478 19.9688L19.4478 12.4688C19.3365 12.1875 19.0552 12 18.7505 12H14.7427C15.147 11.291 15.5396 10.5527 15.8501 9.84375C16.2193 9.00586 16.5005 8.24414 16.5005 7.5C16.5005 5.02148 14.479 3 12.0005 3ZM12.0005 4.5C13.6646 4.5 15.0005 5.83594 15.0005 7.5C15.0005 7.79297 14.813 8.48438 14.479 9.24609C14.1451 10.002 13.688 10.8574 13.231 11.6484C12.6158 12.709 12.3404 13.084 12.0005 13.5938C11.6607 13.084 11.3853 12.709 10.7701 11.6484C10.313 10.8574 9.856 10.002 9.52201 9.24609C9.18803 8.48438 9.00053 7.79297 9.00053 7.5C9.00053 5.83594 10.3365 4.5 12.0005 4.5ZM12.0005 6C11.1744 6 10.5005 6.67383 10.5005 7.5C10.5005 8.32617 11.1744 9 12.0005 9C12.8267 9 13.5005 8.32617 13.5005 7.5C13.5005 6.67383 12.8267 6 12.0005 6ZM5.75443 13.5H10.1548C10.8169 14.5664 11.3794 15.4219 11.3794 15.4219L12.0005 16.3184L12.6216 15.4219C12.6216 15.4219 13.1841 14.5664 13.8462 13.5H18.2408L20.6431 19.5H3.35795L5.75443 13.5Z" fill="white" fill-opacity="0.7"/>
</svg>
