<svg width="48" height="48" viewBox="0 0 48 48" fill="none" xmlns="http://www.w3.org/2000/svg">
<path d="M38.0951 0V4.76175H31.4288V10.4764H26.6666V6.66675H17.1427V10.4764H12.381V22.857H9.52388V17.1427H0V30.4762H9.52388V24.762H12.381V37.143H17.1427V40.9523H26.6666V37.143H31.4288V42.8573H38.0951V47.619H47.619V38.0951H38.0951V40.9523H33.3334V31.4288H38.0951V34.2859H47.619V24.762H38.0951V29.5238H31.4288V35.238H26.6666V31.4288H17.1427V35.238H14.2856V12.381H17.1427V16.1906H26.6666V12.381H31.4288V18.0953H38.0951V22.857H47.619V13.3335H38.0951V16.1906H33.3334V6.66675H38.0951V9.52388H47.619V0H38.0951ZM40.0001 1.90463H45.7144V7.61888H40.0001V1.90463ZM19.0478 8.57137H24.762V14.2856H19.0478V8.57137ZM40.0001 15.2381H45.7144V20.9524H40.0001V15.2381ZM1.90463 19.0478H7.61888V28.5713H1.90463V19.0478ZM40.0001 26.6666H45.7144V32.3809H40.0001V26.6666ZM19.0478 33.3334H24.762V39.0476H19.0478V33.3334ZM40.0001 40.0001H45.7144V45.7144H40.0001V40.0001Z" fill="black"/>
</svg>
