<svg width="24" height="25" viewBox="0 0 24 25" fill="none" xmlns="http://www.w3.org/2000/svg">
<path d="M12.0005 3.5C9.52201 3.5 7.50053 5.52148 7.50053 8C7.50053 8.74414 7.78178 9.50586 8.15092 10.3438C8.46146 11.0527 8.85404 11.791 9.25834 12.5H5.25053C4.94584 12.5 4.66459 12.6875 4.55326 12.9688L1.55326 20.4688C1.45951 20.7031 1.48881 20.9668 1.62943 21.1719C1.77006 21.377 2.00443 21.5 2.25053 21.5H21.7505C21.9966 21.5 22.231 21.377 22.3716 21.1719C22.5122 20.9668 22.5415 20.7031 22.4478 20.4688L19.4478 12.9688C19.3365 12.6875 19.0552 12.5 18.7505 12.5H14.7427C15.147 11.791 15.5396 11.0527 15.8501 10.3438C16.2193 9.50586 16.5005 8.74414 16.5005 8C16.5005 5.52148 14.479 3.5 12.0005 3.5ZM12.0005 5C13.6646 5 15.0005 6.33594 15.0005 8C15.0005 8.29297 14.813 8.98438 14.479 9.74609C14.1451 10.502 13.688 11.3574 13.231 12.1484C12.6158 13.209 12.3404 13.584 12.0005 14.0938C11.6607 13.584 11.3853 13.209 10.7701 12.1484C10.313 11.3574 9.856 10.502 9.52201 9.74609C9.18803 8.98438 9.00053 8.29297 9.00053 8C9.00053 6.33594 10.3365 5 12.0005 5ZM12.0005 6.5C11.1744 6.5 10.5005 7.17383 10.5005 8C10.5005 8.82617 11.1744 9.5 12.0005 9.5C12.8267 9.5 13.5005 8.82617 13.5005 8C13.5005 7.17383 12.8267 6.5 12.0005 6.5ZM5.75443 14H10.1548C10.8169 15.0664 11.3794 15.9219 11.3794 15.9219L12.0005 16.8184L12.6216 15.9219C12.6216 15.9219 13.1841 15.0664 13.8462 14H18.2408L20.6431 20H3.35795L5.75443 14Z" fill="black" fill-opacity="0.3"/>
</svg>
