<svg width="24" height="24" viewBox="0 0 24 24" fill="none" xmlns="http://www.w3.org/2000/svg">
<path d="M3 3C2.17969 3 1.5 3.67969 1.5 4.5V16.5C1.5 17.3203 2.17969 18 3 18V18.75C3 20.8125 4.6875 22.5 6.75 22.5C8.8125 22.5 10.5 20.8125 10.5 18.75V18H18.75C19.9863 18 21 16.9863 21 15.75V6.75C21 5.51367 19.9863 4.5 18.75 4.5H16.5V3H9V4.5H6.75C6.48633 4.5 6.23438 4.55859 6 4.64062V4.5C6 3.67969 5.32031 3 4.5 3H3ZM3 4.5H4.5V16.5H3V4.5ZM10.5 4.5H15V7.5H10.5V4.5ZM6.75 6H9V9H16.5V6H18.75C19.1719 6 19.5 6.32812 19.5 6.75V15.75C19.5 16.1719 19.1719 16.5 18.75 16.5H6.75C6.32812 16.5 6 16.1719 6 15.75V6.75C6 6.32812 6.32812 6 6.75 6ZM9 10.5V12H10.5V10.5H9ZM12 10.5V12H13.5V10.5H12ZM15 10.5V12H16.5V10.5H15ZM9 13.5V15H10.5V13.5H9ZM12 13.5V15H13.5V13.5H12ZM15 13.5V15H16.5V13.5H15ZM5.48438 17.6016C5.84766 17.8535 6.28125 18 6.75 18H9V18.75C9 20.0039 8.00391 21 6.75 21C5.49609 21 4.5 20.0039 4.5 18.75V18C4.88086 18 5.2207 17.8418 5.48438 17.6016Z" fill="white" fill-opacity="0.7"/>
</svg>
