<svg width="48" height="48" viewBox="0 0 48 48" fill="none" xmlns="http://www.w3.org/2000/svg">
<path d="M0.773751 0C0.320001 0.0855 -0.00737373 0.4875 0.000126274 0.9525V39.0476C0.000126274 39.5723 0.428001 40.0001 0.952626 40.0001H16.1908V38.0951H1.90475V1.90463H45.7145V38.0951H31.4289V40.0001H46.6666C47.1913 40.0001 47.6191 39.5723 47.6191 39.0476V0.9525C47.6191 0.427875 47.1913 0 46.6666 0H0.952626C0.922626 0 0.893001 0 0.863376 0C0.833376 0 0.803751 0 0.773751 0ZM9.524 8.57137V10.4764H38.0953V8.57137H9.524ZM9.524 13.3335V15.2381H38.0953V13.3335H9.524ZM9.524 18.0953V19.9999H38.0953V18.0953H9.524ZM23.7204 22.7677C22.7233 22.7677 21.9309 23.3633 21.4288 24.1665C20.4988 23.8691 19.4829 23.9584 18.7205 24.6131C17.9465 25.2754 17.7084 26.2575 17.8276 27.2025C16.9198 27.582 16.2166 28.3035 16.0119 29.2264C16.0119 29.256 16.0119 29.2856 16.0119 29.3156C15.8968 30.2344 16.3059 31.0751 16.9644 31.7261C16.5328 32.5894 16.373 33.5899 16.8751 34.4644C17.1579 34.959 17.6008 35.2826 18.0954 35.5061V46.6665C18.1029 47.0014 18.2889 47.3104 18.5791 47.4739C18.8728 47.6415 19.2339 47.6377 19.5238 47.4701L23.8096 44.9108L28.0955 47.4701C28.3854 47.6377 28.7465 47.6415 29.0401 47.4739C29.3304 47.3104 29.5164 47.0014 29.5239 46.6665V35.1191C29.747 34.9552 29.9518 34.788 30.119 34.5536C30.1303 34.5236 30.1415 34.494 30.149 34.4644C30.6361 33.6086 30.5248 32.6377 30.119 31.7857C30.971 31.1569 31.5328 30.2569 31.4289 29.3156C31.4214 29.2856 31.4101 29.256 31.3989 29.2264C31.1833 28.2626 30.4689 27.5632 29.5835 27.1725C29.6915 26.2388 29.4868 25.2716 28.7203 24.6131C27.9279 23.9359 26.9161 23.9175 26.012 24.1665C25.5061 23.3891 24.7471 22.7677 23.7204 22.7677ZM23.7204 24.6728C24.1558 24.6728 24.4719 24.933 24.6429 25.3867C24.7471 25.6549 24.9628 25.863 25.2384 25.9522C25.253 25.9598 25.3798 25.9635 25.4169 25.9823C25.4653 25.9969 25.4281 26.0119 25.5358 26.0119C25.625 26.0452 25.6288 26.1011 25.8039 26.1011C25.9599 26.0974 26.1125 26.0565 26.2501 25.9823C26.756 25.7291 27.1096 25.7329 27.4704 26.0415C27.8461 26.3655 27.9241 26.7892 27.7681 27.2025C27.6564 27.5336 27.7381 27.8981 27.9763 28.1546C28.0134 28.2292 28.0546 28.3519 28.1848 28.482C28.3149 28.6163 28.4784 28.7092 28.661 28.7501C29.1928 28.869 29.3975 29.0996 29.5239 29.613C29.561 30.0521 29.4905 30.2903 28.8095 30.5359C28.4338 30.6735 28.1848 31.0305 28.1848 31.4288V31.8154C28.1885 32.0089 28.2515 32.1949 28.3633 32.3512C28.6348 32.7345 28.6573 33.1808 28.5121 33.4823C28.2181 33.8543 27.794 34.0624 27.4408 34.0177C27.1543 33.9844 26.8715 34.0849 26.6668 34.2859L26.369 34.5536C26.1905 34.7359 26.0938 34.9852 26.1013 35.238C26.1013 35.7439 25.904 36.0008 25.4765 36.1609C25.4653 36.1609 25.4578 36.1609 25.4465 36.1609C25.4465 36.1496 25.2901 36.1905 25.1488 36.1905C24.896 36.1905 24.6429 36.0713 24.3751 35.8035C24.2004 35.6325 23.966 35.5395 23.7204 35.5358H23.2441C22.9914 35.5283 22.742 35.625 22.5598 35.8035C22.1765 36.1867 21.8604 36.2985 21.4884 36.1609C21.1235 36.0233 20.8633 35.6025 20.8633 35.238C20.8595 34.9777 20.7553 34.7321 20.5655 34.5536L20.2978 34.2859C20.0859 34.0774 19.7881 33.9769 19.4941 34.0177C19.1184 34.0661 18.7276 33.8689 18.5416 33.5415C18.3706 33.2404 18.404 32.7529 18.6905 32.3512C18.8023 32.1949 18.8656 32.0089 18.869 31.8154V31.4288C18.8656 31.0789 18.6721 30.759 18.3631 30.5951C18.1104 30.45 17.9056 29.9741 17.9169 29.613C18.047 29.0884 18.2851 28.7948 18.6905 28.7501C18.9028 28.7276 19.1034 28.6309 19.256 28.482C19.4011 28.3369 19.4608 28.1884 19.4941 28.125C19.7026 27.8647 19.7581 27.5149 19.643 27.2025C19.4866 26.7892 19.565 26.3655 19.9408 26.0415C20.3053 25.7291 20.8036 25.7291 21.0714 25.9226C21.3616 26.1236 21.7411 26.1458 22.0539 25.9823C22.0648 25.9823 22.0723 25.9823 22.0835 25.9823C22.1131 25.9748 22.1431 25.9635 22.1728 25.9522C22.4964 25.8555 22.7458 25.5953 22.8275 25.2679C22.9018 24.9776 23.285 24.6728 23.7204 24.6728ZM27.6193 36.4583V45L24.2859 43.0061C23.9919 42.8348 23.6274 42.8348 23.3334 43.0061L20 45V37.4404C20.2235 37.6526 20.4875 37.8274 20.8036 37.9463C21.7486 38.2999 22.6565 37.9575 23.393 37.4404C23.4005 37.4366 23.4151 37.4441 23.4226 37.4404C23.4301 37.4441 23.4451 37.4366 23.4526 37.4404C23.9101 37.7902 24.4606 38.0951 25.1488 38.0951C25.3201 38.0951 25.6884 38.0914 26.1313 37.9166C26.1459 37.9016 26.1721 37.8945 26.1905 37.887C26.2168 37.8758 26.2243 37.9016 26.2501 37.887V37.857C26.879 37.5817 27.344 37.0759 27.6193 36.4583Z" fill="black"/>
</svg>
