<svg width="24" height="25" viewBox="0 0 24 25" fill="none" xmlns="http://www.w3.org/2000/svg">
<path d="M11.25 2C5.87109 2 1.5 6.37109 1.5 11.75C1.5 17.1289 5.87109 21.5 11.25 21.5C13.0781 21.5 14.7949 20.9961 16.2598 20.1172L15.4863 18.8281C14.25 19.5723 12.8027 20 11.25 20C6.68555 20 3 16.3145 3 11.75C3 7.18555 6.68555 3.5 11.25 3.5C15.8145 3.5 19.5 7.18555 19.5 11.75V13.4023C19.5 14.5625 18.5625 15.5 17.4082 15.5H17.0977C15.9434 15.5 15 14.5625 15 13.4023V10.0977C15 8.12305 13.377 6.5 11.4023 6.5H11.0977C9.12305 6.5 7.5 8.12305 7.5 10.0977V13.4023C7.5 15.377 9.12305 17 11.0977 17H11.4023C12.5625 17 13.5938 16.4316 14.25 15.5703C14.9121 16.4316 15.9375 17 17.0977 17H17.4082C19.377 17 21 15.3828 21 13.4023V11.75C21 6.37109 16.6289 2 11.25 2ZM11.0977 8H11.4023C12.5566 8 13.5 8.9375 13.5 10.0977V13.4023C13.5 14.5625 12.5566 15.5 11.4023 15.5H11.0977C9.9375 15.5 9 14.5625 9 13.4023V10.0977C9 8.9375 9.9375 8 11.0977 8Z" fill="black" fill-opacity="0.3"/>
</svg>
