<svg width="24" height="24" viewBox="0 0 24 24" fill="none" xmlns="http://www.w3.org/2000/svg">
<path d="M5.05669 1.56445L2.69536 3.92578C1.40044 5.2207 1.11919 7.23633 2.04497 8.81836C3.07622 10.5879 3.91997 11.8945 7.45317 15.4219C10.9805 18.9551 11.9415 19.4355 13.6817 20.4551C15.2696 21.3809 17.2793 21.0996 18.5684 19.8047L20.9356 17.4434L16.3653 12.8789L14.5079 14.7363C14.2852 14.6367 13.9512 14.4609 13.5645 14.2148C12.7676 13.7051 11.7481 12.9258 10.8516 12.0234C9.94926 11.127 9.07036 10.0078 8.46098 9.10547C8.16215 8.66016 7.92192 8.25586 7.79301 7.99219C7.78715 7.98047 7.78715 7.98047 7.78129 7.96875L9.62114 6.12891L5.05669 1.56445ZM5.05669 3.68555L7.50004 6.12891L6.42778 7.20703C6.20512 7.42969 6.18169 7.67578 6.18754 7.81641C6.18754 7.95117 6.21098 8.04492 6.23442 8.13281C6.28715 8.31445 6.35747 8.47266 6.44536 8.66016C6.627 9.02344 6.89067 9.45703 7.21879 9.94922C7.87504 10.9219 8.80083 12.0996 9.7852 13.0898C10.7754 14.0742 11.8653 14.9062 12.7618 15.4746C13.2071 15.7617 13.5997 15.9785 13.9336 16.125C14.1036 16.2012 14.2559 16.2598 14.4375 16.2949C14.5254 16.3125 14.625 16.3242 14.7598 16.3125C14.8946 16.3066 15.1055 16.2598 15.293 16.0723L16.3653 15L18.8145 17.4434L17.5079 18.75C16.6934 19.5645 15.4336 19.7402 14.4375 19.1602C12.668 18.123 11.9942 17.8477 8.50786 14.3672C5.02739 10.8809 4.35942 9.80859 3.33989 8.0625C2.75981 7.06641 2.93559 5.80664 3.75004 4.99219L5.05669 3.68555Z" fill="white" fill-opacity="0.7"/>
</svg>
